<svg class="pnf-logo" enable-background="new 67.892 354.772 476.216 82.455" height="82.455px" version="1.1" viewBox="67.892 354.772 476.216 82.455" width="476.216px" x="0px" xml:space="preserve" xmlns="http://www.w3.org/2000/svg" xmlns:xlink="http://www.w3.org/1999/xlink" y="0px"> <rect class="border" height="4.643" width="476.216" x="67.892" y="432.585"></rect> <g class="text"> <path class="letter" d="M79.716,381.682h13.002c4.229,0,6.952,0,8.464-0.306c2.111-0.306,3.629-0.612,4.835-1.224
			c1.205-0.612,2.414-1.512,3.023-2.717c0.899-1.53,1.529-4.535,1.529-8.773c0-4.538-0.611-7.552-1.814-9.373
			c-1.202-1.821-3.629-2.72-6.952-3.317c-1.512-0.306-4.538-0.306-9.072-0.306H69.135v34.474h10.581V381.682z M92.718,364.445
			c3.323,0,5.153,0,5.443,0.306c0.594,0.306,1.225,0.612,1.509,1.206c0.285,0.594,0.306,1.508,0.306,2.72s0,2.118-0.306,2.724
			c-0.237,0.544-0.676,0.976-1.224,1.206c-0.307,0.306-0.899,0.306-1.206,0.306c-0.611,0-2.12,0.306-4.535,0.306H79.716v-8.773H92.718
			z"></path> <path class="letter" d="M120.228,390.14l3.032-5.768h22.662l3.021,5.756h11.793l-17.834-34.456h-16.325l-18.146,34.468H120.228z M133.532,363.842
			h2.111l6.646,12.996h-15.407L133.532,363.842z"></path> <path class="letter" d="M172.828,381.376h14.799c2.142,0,3.647,0,4.241,0.306c0.567,0.009,1.112,0.227,1.529,0.612c0.588,0.612,0.9,1.203,0.9,1.814
			c0.306,0.896,0.306,2.108,0.306,4.223v1.836h10.264v-3.348c0-3.017,0-4.838-0.307-5.74c0.024-0.896-0.305-1.766-0.918-2.42
			c-0.918-1.206-2.727-1.812-4.844-1.812c1.499-0.22,2.94-0.734,4.241-1.512c0.886-0.811,1.516-1.862,1.812-3.026
			c0.306-1.206,0.306-3.017,0.306-5.432c0.018-2.234-0.187-4.465-0.611-6.659c-0.598-1.208-1.516-2.414-2.73-3.029
			c-1.202-0.896-2.111-1.199-3.316-1.199c-1.225-0.306-4.841-0.306-10.896-0.306h-25.355v34.456h10.581V381.376z M172.828,364.445
			h19.033c0.612,0,1.225,0,1.53,0.306c0.588,0.306,0.899,0.612,0.899,1.206c0.307,0.612,0.307,1.224,0.307,2.423v2.72
			c-0.307,0.306-0.612,0.918-1.196,1.206c-0.307,0.306-0.612,0.306-1.225,0.306c-1.521,0.008-3.039,0.11-4.547,0.306h-14.802V364.445z
			"></path> <polygon class="letter" points="219.377,376.838 225.118,376.838 240.529,390.14 256.25,390.14 234.794,372.6 254.741,355.369 238.723,355.369 
			225.118,368.062 219.377,368.062 219.377,355.672 208.802,355.672 208.802,390.14 219.377,390.14 "></polygon> <polygon class="letter" points="294.038,364.445 295.253,364.445 313.39,390.14 331.52,390.14 331.52,355.672 320.95,355.672 320.95,381.376 
			320.045,381.376 301.906,355.672 283.457,355.672 283.457,390.14 294.344,390.14 "></polygon> <polygon class="letter" points="359.642,378.35 384.428,378.35 384.428,370.192 359.642,370.192 359.642,363.842 385.643,363.842 385.643,355.672 
			349.057,355.672 349.057,390.14 359.642,390.14 "></polygon> <polygon class="letter" points="423.415,381.37 398.929,381.37 398.929,355.672 388.057,355.672 388.057,390.14 423.415,390.14 "></polygon> <polygon class="letter" points="434.296,390.14 445.184,390.14 445.184,378.044 463.923,355.672 450.327,355.672 439.746,369.571 428.559,355.672 
			414.655,355.672 434.296,378.044 "></polygon> <polygon class="letter" points="280.443,354.772 273.185,354.772 270.464,365.654 274.694,365.654 "></polygon> <g class="registered"> <path class="inner" d="M457.411,390.186h2.048v-3.25c0.083-0.021,0.168-0.034,0.254-0.037c0.323,0.028,0.619,0.197,0.808,0.462
				c0.27,0.306,0.797,1.244,1.582,2.815h2.423l-1.327-2.387c-0.183-0.308-0.405-0.589-0.661-0.838
				c-0.206-0.172-0.442-0.303-0.698-0.386c0.643-0.106,1.234-0.415,1.689-0.881c0.354-0.392,0.544-0.904,0.532-1.432
				c0.029-0.638-0.227-1.257-0.697-1.689c-0.462-0.428-1.225-0.633-2.271-0.633h-3.672L457.411,390.186z M459.459,383.377h0.976
				c0.415-0.039,0.831,0.063,1.182,0.288c0.225,0.179,0.353,0.453,0.346,0.741c0.004,0.288-0.128,0.561-0.355,0.737
				c-0.377,0.235-0.82,0.343-1.264,0.306h-0.885L459.459,383.377z"></path> <path class="outer" d="M457.051,379.375c-3.688,2.146-4.939,6.875-2.793,10.564c0.673,1.157,1.635,2.12,2.793,2.793
				c3.689,2.124,8.402,0.862,10.538-2.821c1.375-2.388,1.375-5.327,0-7.714c-0.678-1.174-1.654-2.147-2.83-2.821
				C462.371,378.008,459.438,378.008,457.051,379.375 M465.313,381.655c2.423,2.438,2.411,6.378-0.026,8.802
				c-2.438,2.423-6.379,2.412-8.802-0.026c-2.424-2.438-2.412-6.378,0.025-8.802c1.171-1.164,2.755-1.814,4.405-1.81
				C462.572,379.8,464.161,380.464,465.313,381.655"></path> </g> </g> <g class="chevrons chevrons-1"> <polygon class="chevron-top" fill="#00AEDB" points="524.337,385.309 509.673,381.333 502.427,385.645 517.1,389.607 "></polygon> <polygon class="chevron-bottom" fill="#0067B1" points="514.958,404.748 522.201,400.446 524.337,385.309 517.1,389.617 "></polygon> </g> <g class="chevrons chevrons-2"> <polygon class="chevron-top" fill="#00AEDB" points="536.292,378.16 521.576,374.243 514.991,378.16 529.692,382.092 "></polygon> <polygon class="chevron-bottom" fill="#0067B1" points="527.547,397.252 534.141,393.326 536.292,378.16 529.692,382.092 "></polygon> </g> <g class="chevrons chevrons-3"> <polygon class="chevron-top" fill="#00AEDB" points="543.471,373.913 528.728,369.941 524.818,372.276 539.53,376.278 "></polygon> <polygon class="chevron-bottom" fill="#0067B1" points="539.53,376.278 537.44,391.333 541.335,389.008 543.471,373.913 "></polygon> </g> <g class="chevron-lines"> <path class="chevron-line-bottom" d="M482.645,423.947c0.275-0.159,24.785-14.765,24.785-14.765l2.143-15.083l-31.454,18.712
			c-1.71,0.769-3.56,1.179-5.435,1.206H68.238v12.396h402.758C476.959,426.413,481.056,424.884,482.645,423.947" fill="#0067B1"></path> <path class="chevron-line-top" d="M478.128,412.812l31.444-18.712l-14.722-3.978l-17.268,10.282c-1.9,1.224-4.73,1.224-4.73,1.224H68.238
			v12.394h404.456c3.418,0,5.435-1.206,5.435-1.206" fill="#00AEDB"></path> </g> </svg>